<svg width="41" height="41" viewBox="0 0 41 41" fill="none" xmlns="http://www.w3.org/2000/svg">
<path d="M40.5 20.2305C40.5 34.1213 34.4766 40.2305 20.5507 40.2305C6.62471 40.2305 0.5 34.1213 0.5 20.2305C0.5 6.33973 6.62471 0.23053 20.5507 0.23053C34.4766 0.23053 40.5 6.33973 40.5 20.2305Z" fill="#6652DE"/>
<path fill-rule="evenodd" clip-rule="evenodd" d="M29.5 24.2305C30.0128 24.2305 30.4355 24.6166 30.4933 25.1139L30.5 25.2305V27.2305C30.5 28.8282 29.2511 30.1342 27.6763 30.2254L27.5 30.2305H13.5C11.9023 30.2305 10.5963 28.9816 10.5051 27.4068L10.5 27.2305V25.2305C10.5 24.6782 10.9477 24.2305 11.5 24.2305C12.0128 24.2305 12.4355 24.6166 12.4933 25.1139L12.5 25.2305V27.2305C12.5 27.7434 12.886 28.166 13.3834 28.2238L13.5 28.2305H27.5C28.0128 28.2305 28.4355 27.8445 28.4933 27.3472L28.5 27.2305V25.2305C28.5 24.6782 28.9477 24.2305 29.5 24.2305ZM20.5 10.2305C21.0523 10.2305 21.5 10.6782 21.5 11.2305V20.8155L22.7929 19.5234C23.1534 19.1629 23.7206 19.1352 24.1129 19.4402L24.2071 19.5234C24.5676 19.8839 24.5953 20.4511 24.2903 20.8434L24.2071 20.9376L21.2071 23.9376L21.1631 23.979L21.0953 24.0342L20.9841 24.1059L20.8713 24.1593L20.766 24.1947L20.6175 24.2237L20.5 24.2305L20.4248 24.2277L20.2993 24.2103L20.1879 24.1808L20.0768 24.1369L19.9793 24.0845L19.8833 24.0177C19.8515 23.9929 19.8214 23.9661 19.7929 23.9376L16.7929 20.9376C16.4024 20.5471 16.4024 19.9139 16.7929 19.5234C17.1534 19.1629 17.7206 19.1352 18.1129 19.4402L18.2071 19.5234L19.5 20.8155V11.2305C19.5 10.6782 19.9477 10.2305 20.5 10.2305Z" fill="white"/>
</svg>
